<?xml version="1.0" standalone="no"?><!DOCTYPE svg PUBLIC "-//W3C//DTD SVG 1.1//EN" "http://www.w3.org/Graphics/SVG/1.1/DTD/svg11.dtd"><svg t="1519483791162" class="icon" style="" viewBox="0 0 1024 1024" version="1.1" xmlns="http://www.w3.org/2000/svg" p-id="6532" xmlns:xlink="http://www.w3.org/1999/xlink" width="200" height="200"><defs><style type="text/css"></style></defs><path d="M943.640057 5.630978c-5.886932-3.788112-27.131076-14.333398-52.316904 9.3679l-9.3679 8.855992c-65.67768 62.452665-109.03621 103.661185-350.093258 22.575103A544.617952 544.617952 0 0 0 335.955152 17.507222c-52.214523 2.047628-103.917139 12.081007-153.776889 29.690612-85.18134 29.997755-135.604188 71.974137-137.703007 73.71462a29.792993 29.792993 0 0 0-4.863118 5.221453 29.58823 29.58823 0 0 0-11.364337 37.113264l373.077886 842.957403a29.58823 29.58823 0 1 0 54.10858-23.957252l-172.871024-390.738681 2.866679-5.528596c39.263274-74.943198 83.696809-159.868584 312.160943-139.597064a243.002295 243.002295 0 0 0 128.386298-23.650107c35.219208-16.841743 68.749122-42.283526 99.66831-75.711058 48.426411-52.214523 91.119462-125.570809 117.073152-201.179486 9.930998-28.820369 16.483408-55.490728 19.042943-77.144399 2.354773-20.476284 3.071443-49.347843-18.121511-63.015762z m-63.118144 138.112533c-22.114386 57.74312-54.006198 112.261225-89.788503 153.572126-57.02645 65.780061-120.246975 96.136151-187.921092 90.095648-116.919579-10.340523-204.35331 4.555973-267.369073 45.559731-40.082325 26.107262-64.705056 59.022887-83.133711 90.24922L91.365945 159.61263a450.119903 450.119903 0 0 1 112.773132-57.435975c100.538552-34.860873 204.455691-34.758491 308.884737 0.358335 123.574371 41.618046 211.161674 55.439538 275.559586 43.614484 48.119266-8.804802 80.625366-31.123951 109.03621-56.053826a452.525867 452.525867 0 0 1-17.097697 53.647863z" p-id="6533"></path></svg>