<?xml version="1.0" standalone="no"?><!DOCTYPE svg PUBLIC "-//W3C//DTD SVG 1.1//EN" "http://www.w3.org/Graphics/SVG/1.1/DTD/svg11.dtd"><svg t="1519484626720" class="icon" style="" viewBox="0 0 1024 1024" version="1.1" xmlns="http://www.w3.org/2000/svg" p-id="5188" xmlns:xlink="http://www.w3.org/1999/xlink" width="200" height="200"><defs><style type="text/css"></style></defs><path d="M512 568.888889c-159.288889 0-284.444444-125.155556-284.444444-284.444445s125.155556-284.444444 284.444444-284.444444 284.444444 125.155556 284.444444 284.444444-125.155556 284.444444-284.444444 284.444445z m0-56.888889c125.155556 0 227.555556-102.4 227.555556-227.555556s-102.4-227.555556-227.555556-227.555555-227.555556 102.4-227.555556 227.555555 102.4 227.555556 227.555556 227.555556zM824.888889 1024c-79.644444 0-142.222222-62.577778-142.222222-142.222222s62.577778-142.222222 142.222222-142.222222 142.222222 62.577778 142.222222 142.222222-62.577778 142.222222-142.222222 142.222222z m0-56.888889c45.511111 0 85.333333-39.822222 85.333333-85.333333s-39.822222-85.333333-85.333333-85.333334-85.333333 39.822222-85.333333 85.333334 39.822222 85.333333 85.333333 85.333333z" p-id="5189"></path><path d="M796.444444 455.111111h56.888889v284.444445h-56.888889zM853.333333 455.111111h113.777778v56.888889h-113.777778zM853.333333 568.888889h113.777778v56.888889h-113.777778z"  p-id="5190"></path><path d="M512 512l-51.2 62.577778C261.688889 597.333333 113.777778 762.311111 113.777778 967.111111H56.888889v-56.888889h5.688889c28.444444-221.866667 216.177778-398.222222 449.422222-398.222222z m0 0l-51.2 62.577778C261.688889 597.333333 113.777778 762.311111 113.777778 967.111111H56.888889v-56.888889h5.688889c28.444444-221.866667 216.177778-398.222222 449.422222-398.222222z"  p-id="5191"></path></svg>