<?xml version="1.0" standalone="no"?><!DOCTYPE svg PUBLIC "-//W3C//DTD SVG 1.1//EN" "http://www.w3.org/Graphics/SVG/1.1/DTD/svg11.dtd"><svg t="1519483805303" class="icon" style="" viewBox="0 0 1024 1024" version="1.1" xmlns="http://www.w3.org/2000/svg" p-id="6779" xmlns:xlink="http://www.w3.org/1999/xlink" width="200" height="200"><defs><style type="text/css"></style></defs><path d="M915.2 889.6l-64 134.4-64-134.4-64 134.4-64-134.4L576 1024l-64-134.4L448 1024l-64-134.4-64 134.4-64-134.4-64 134.4-64-134.4-51.2 108.8c-6.4-12.8-12.8-25.6-12.8-38.4L64 70.4c0-38.4 32-70.4 64-70.4l806.4 0c38.4 0 64 32 64 70.4l0 889.6c0 12.8-6.4 32-12.8 38.4L915.2 889.6zM422.4 537.6C416 524.8 409.6 512 403.2 505.6 390.4 499.2 377.6 486.4 364.8 480 352 473.6 339.2 467.2 320 467.2L281.6 448C275.2 448 268.8 441.6 262.4 441.6 256 441.6 249.6 435.2 243.2 435.2 236.8 428.8 230.4 422.4 230.4 416c0-6.4-6.4-12.8-6.4-19.2 0-6.4 0-19.2 6.4-19.2 6.4-6.4 6.4-12.8 12.8-12.8 6.4 0 12.8-6.4 19.2-6.4 6.4 0 12.8 0 25.6 0 12.8 0 25.6 0 32 0 12.8 0 19.2 0 25.6 6.4 6.4 0 12.8 6.4 19.2 6.4 6.4 0 12.8 6.4 19.2 6.4 12.8-19.2 19.2-44.8 19.2-64C396.8 300.8 377.6 300.8 364.8 294.4 345.6 294.4 326.4 288 307.2 288L307.2 230.4c-12.8 0-19.2-6.4-32-6.4-12.8 0-19.2 0-32 6.4l0 64C211.2 294.4 179.2 307.2 160 326.4 134.4 345.6 121.6 377.6 121.6 409.6 121.6 428.8 128 441.6 128 448c6.4 12.8 12.8 19.2 19.2 32 6.4 6.4 19.2 12.8 32 19.2C192 505.6 204.8 512 224 518.4L256 531.2c6.4 0 12.8 6.4 25.6 6.4 6.4 0 12.8 6.4 19.2 12.8C307.2 556.8 313.6 556.8 320 563.2 320 569.6 326.4 582.4 326.4 588.8c0 19.2-6.4 32-25.6 38.4C288 640 262.4 640 236.8 640c-19.2 0-38.4 0-51.2-6.4C166.4 633.6 147.2 633.6 128 627.2 128 633.6 121.6 646.4 115.2 659.2c-6.4 12.8-6.4 25.6-6.4 32C121.6 697.6 134.4 704 140.8 704c12.8 0 19.2 6.4 32 6.4 12.8 0 19.2 0 32 6.4 12.8 0 25.6 0 38.4 0l6.4 0 0 64c12.8 0 19.2 6.4 32 6.4 12.8 0 19.2 0 32-6.4l0-70.4c38.4-6.4 70.4-25.6 89.6-44.8C422.4 640 435.2 614.4 435.2 582.4 435.2 563.2 428.8 550.4 422.4 537.6zM883.2 236.8 576 236.8C563.2 236.8 544 256 544 275.2c0 19.2 12.8 32 32 32l300.8 0c19.2 0 32-12.8 32-32C915.2 256 902.4 236.8 883.2 236.8zM883.2 409.6 576 409.6c-19.2 0-32 12.8-32 32S563.2 480 576 480l300.8 0c19.2 0 32-12.8 32-32S902.4 409.6 883.2 409.6zM883.2 582.4 576 582.4c-19.2 0-32 12.8-32 32 0 19.2 12.8 32 32 32l300.8 0c19.2 0 32-12.8 32-32C915.2 595.2 902.4 582.4 883.2 582.4zM883.2 748.8l-198.4 0c-19.2 0-32 12.8-32 32 0 19.2 12.8 32 32 32l198.4 0c19.2 0 32-12.8 32-32C915.2 768 902.4 748.8 883.2 748.8z" p-id="6780"></path></svg>