<?xml version="1.0" standalone="no"?><!DOCTYPE svg PUBLIC "-//W3C//DTD SVG 1.1//EN" "http://www.w3.org/Graphics/SVG/1.1/DTD/svg11.dtd"><svg t="1519483798793" class="icon" style="" viewBox="0 0 1025 1024" version="1.1" xmlns="http://www.w3.org/2000/svg" p-id="6653" xmlns:xlink="http://www.w3.org/1999/xlink" width="200.1953125" height="200"><defs><style type="text/css"></style></defs><path d="M67.503669 314.247662 0.290781 967.374566C-2.877087 998.157824 20.686742 1024 51.54763 1024L972.465964 1024C1003.33056 1024 1026.870025 997.958532 1023.722637 967.374566L956.509749 314.247662C953.634251 286.30498 929.70037 264.827586 901.665015 264.827586L726.307134 264.827586 726.307134 212.032812C726.307134 94.840497 631.186361 0 513.731796 0 396.307421 0 301.156634 94.931209 301.156634 212.032812L301.275454 264.827586 122.348403 264.827586C94.426394 264.827586 70.359746 286.495285 67.503669 314.247662ZM372.014963 335.448276 372.014963 212.032812C372.014963 133.917343 435.458119 70.62069 513.731796 70.62069 592.045903 70.62069 655.448629 133.836729 655.448629 212.032812L655.448629 335.448276 901.665015 335.448276C893.404337 335.448276 886.856739 329.572723 886.02112 321.453021L953.234008 974.579924C952.100193 963.562355 961.304717 953.37931 972.465964 953.37931L51.54763 953.37931C62.569931 953.37931 71.907399 963.619646 70.779586 974.579924L137.992298 321.453021C137.142378 329.713311 130.772392 335.448276 122.348403 335.448276L372.014963 335.448276ZM655.448629 335.448276 655.448629 494.174084C655.448629 513.675458 671.310919 529.484429 690.87797 529.484429 710.444844 529.484429 726.307134 513.675458 726.307134 494.174084L726.307134 264.827586 371.896143 264.827586 371.896143 335.448276 655.448629 335.448276ZM372.014963 335.448276 301.156634 335.448276 301.156634 494.174084C301.156634 513.675458 317.018748 529.484429 336.585799 529.484429 356.15285 529.484429 372.014963 513.675458 372.014963 494.174084L372.014963 335.448276Z" p-id="6654"></path></svg>