<?xml version="1.0" standalone="no"?><!DOCTYPE svg PUBLIC "-//W3C//DTD SVG 1.1//EN" "http://www.w3.org/Graphics/SVG/1.1/DTD/svg11.dtd"><svg t="1519488607683" class="icon" style="" viewBox="0 0 1024 1024" version="1.1" xmlns="http://www.w3.org/2000/svg" p-id="3414" xmlns:xlink="http://www.w3.org/1999/xlink" width="200" height="200"><defs><style type="text/css"></style></defs><path d="M256.003008 341.329323c0-141.182341 114.806118-255.996992 255.988459-255.996992 141.182341 0 255.996992 114.814651 255.996992 255.996992 0 141.173808-114.814651 255.996992-255.996992 255.996992s-255.996992-114.823184-255.996992-255.996992m723.874161 629.018742c-41.949374-157.139487-152.540074-280.018043-291.409909-337.404035 98.592975-59.903296 164.862063-168.019359 164.862062-291.623241C853.312256 153.128867 700.183389 0 511.982934 0s-341.329323 153.128867-341.329323 341.329323c0 123.595348 66.260555 231.711411 164.904729 291.614707-138.878368 57.428659-249.469069 180.264549-291.444042 337.404035a42.649099 42.649099 0 0 0 30.207645 52.172187 42.708832 42.708832 0 0 0 52.257519-30.207645C175.278623 810.008616 333.740761 682.658645 512 682.658645s336.75551 127.358504 385.446138 309.671028a42.580833 42.580833 0 0 0 52.223386 30.207646 42.649099 42.649099 0 0 0 30.207645-52.180721" p-id="3415" ></path></svg>